<svg width="25" height="27" viewBox="0 0 25 27" fill="none" xmlns="http://www.w3.org/2000/svg">
<path fill-rule="evenodd" clip-rule="evenodd" d="M22.2299 0.652832L2.77045 0.652832C1.42705 0.652832 0.338013 1.80321 0.338013 3.22228L0.338013 23.7778C0.338013 25.1969 1.42705 26.3473 2.77045 26.3473L12.5002 26.3473L12.5002 16.6741L8.85153 16.6741L8.85153 13.0466L12.5002 13.0466L12.5002 11.0987C12.5002 7.41077 14.3119 5.79172 17.2738 5.79172C18.6644 5.79172 19.4126 5.89632 19.7761 5.94714L19.7975 5.95012L19.7975 9.41917L17.7773 9.41917C16.5202 9.41917 16.1488 10.106 16.1488 11.4965L16.1488 13.0466L19.7659 13.0466L19.2659 16.6741L16.1488 16.6741L16.1488 26.3473L22.2299 26.3473C23.5733 26.3473 24.6623 25.1969 24.6623 23.7778L24.6623 3.22228C24.6623 1.80321 23.5733 0.652832 22.2299 0.652832Z" fill="#304659"/>
</svg>
