<svg width="18" height="18" viewBox="0 0 18 18" fill="none" xmlns="http://www.w3.org/2000/svg">
<path fill-rule="evenodd" clip-rule="evenodd" d="M0.714233 9.00001C0.714233 4.40001 4.54566 0.666672 9.27709 0.666672C14.0171 0.666672 17.8571 4.40001 17.8571 9.00001C17.8571 13.6 14.0171 17.3333 9.27709 17.3333C4.54566 17.3333 0.714233 13.6 0.714233 9.00001ZM12.6885 5.66667H15.2171C14.3942 4.29167 13.0828 3.22501 11.5057 2.70001C12.0199 3.62501 12.4142 4.62501 12.6885 5.66667ZM9.28566 2.36667C9.99709 3.36667 10.5542 4.47501 10.9228 5.66667H7.64852C8.01709 4.47501 8.57423 3.36667 9.28566 2.36667ZM2.42852 9.00001C2.42852 9.57501 2.51423 10.1333 2.65138 10.6667H5.54852C5.47995 10.1167 5.42852 9.56667 5.42852 9.00001C5.42852 8.43334 5.47995 7.88334 5.54852 7.33334H2.65138C2.51423 7.86667 2.42852 8.425 2.42852 9.00001ZM3.35423 12.3333H5.8828C6.15709 13.375 6.55138 14.375 7.06566 15.3C5.48852 14.775 4.17709 13.7167 3.35423 12.3333ZM3.35423 5.66667H5.8828C6.15709 4.62501 6.55138 3.62501 7.06566 2.70001C5.48852 3.22501 4.17709 4.28334 3.35423 5.66667ZM9.28566 15.6333C8.57423 14.6333 8.01709 13.525 7.64852 12.3333H10.9228C10.5542 13.525 9.99709 14.6333 9.28566 15.6333ZM7.1428 9.00001C7.1428 9.56667 7.2028 10.1167 7.27995 10.6667H11.2914C11.3685 10.1167 11.4285 9.56667 11.4285 9.00001C11.4285 8.43334 11.3685 7.87501 11.2914 7.33334H7.27995C7.2028 7.87501 7.1428 8.43334 7.1428 9.00001ZM11.5057 15.3C12.0199 14.375 12.4142 13.375 12.6885 12.3333H15.2171C14.3942 13.7083 13.0828 14.775 11.5057 15.3ZM13.1428 9.00001C13.1428 9.56667 13.0914 10.1167 13.0228 10.6667H15.9199C16.0571 10.1333 16.1428 9.57501 16.1428 9.00001C16.1428 8.425 16.0571 7.86667 15.9199 7.33334H13.0228C13.0914 7.88334 13.1428 8.43334 13.1428 9.00001Z" fill="#7A869A"/>
</svg>
