<svg width="138" height="52" viewBox="0 0 138 52" fill="none" xmlns="http://www.w3.org/2000/svg">
<rect width="138" height="52" rx="26" fill="#4F4F4F"/>
<path d="M42 19.7844V9.02008L47.8412 5.5H58.3965V11.5198H48.2512V17.2846H58.3965V23.2534H47.8412L42 19.7844Z" fill="white"/>
<path d="M42 25.5491H48.4561V29.0692H58.3965V34.834H47.995L42 31.3649V25.5491Z" fill="white"/>
<path d="M70.8476 14.9889H77.3037V9.02008L71.2575 5.5H60.7022V11.5198H70.8476V14.9889Z" fill="white"/>
<path d="M96 43.0309V32.4707L89.9538 28.9506H79.3986V34.9195H89.5439V40.7352H79.6035V46.5H89.9538L96 43.0309Z" fill="white"/>
<path d="M60.6963 37.2152H67.1524V40.7352H77.0928V46.5H66.6913L60.6963 43.0309V37.2152Z" fill="white"/>
<path d="M89.5439 26.6549H96V20.6861L89.9538 17.166H79.3986V23.1859H89.5439V26.6549Z" fill="white"/>
<path fill-rule="evenodd" clip-rule="evenodd" d="M77.3298 17.166H60.6702V35.0158H77.3298V17.166ZM62.0803 18.8289H75.9197V22.4404H62.0803V18.8289ZM62.0803 24.2852H75.9197V27.8967H62.0803V24.2852ZM75.9197 29.7414H62.0803V33.353H75.9197V29.7414Z" fill="white"/>
</svg>
