<svg width="1100" height="75" viewBox="0 0 1100 75" fill="none" xmlns="http://www.w3.org/2000/svg">
<rect x="91.5" y="8" width="32" height="32" rx="16" fill="#A2F07B"/>
<path d="M113.999 19.117L105.942 27.3241L103.001 24.2972C102.848 24.1723 102.603 24.1723 102.48 24.2972L101.592 25.2021C101.469 25.327 101.469 25.5766 101.592 25.7326L105.697 29.883C105.85 30.039 106.065 30.039 106.218 29.883L115.408 20.5213C115.531 20.3965 115.531 20.1468 115.408 19.9908L114.52 19.117C114.397 18.961 114.152 18.961 113.999 19.117Z" fill="#444444"/>
<rect x="123.5" y="23" width="91.5" height="2" fill="#A2F07B"/>
<path d="M93.4531 59.625V71H91.9688V59.625H93.4531ZM97.1094 59.625V60.8594H88.3203V59.625H97.1094ZM97.4141 66.8672V66.6875C97.4141 66.0781 97.5026 65.513 97.6797 64.9922C97.8568 64.4661 98.112 64.0104 98.4453 63.625C98.7786 63.2344 99.1823 62.9323 99.6562 62.7188C100.13 62.5 100.661 62.3906 101.25 62.3906C101.844 62.3906 102.378 62.5 102.852 62.7188C103.331 62.9323 103.737 63.2344 104.07 63.625C104.409 64.0104 104.667 64.4661 104.844 64.9922C105.021 65.513 105.109 66.0781 105.109 66.6875V66.8672C105.109 67.4766 105.021 68.0417 104.844 68.5625C104.667 69.0833 104.409 69.5391 104.07 69.9297C103.737 70.3151 103.333 70.6172 102.859 70.8359C102.391 71.0495 101.859 71.1562 101.266 71.1562C100.672 71.1562 100.138 71.0495 99.6641 70.8359C99.1901 70.6172 98.7839 70.3151 98.4453 69.9297C98.112 69.5391 97.8568 69.0833 97.6797 68.5625C97.5026 68.0417 97.4141 67.4766 97.4141 66.8672ZM98.8594 66.6875V66.8672C98.8594 67.2891 98.9089 67.6875 99.0078 68.0625C99.1068 68.4323 99.2552 68.7604 99.4531 69.0469C99.6562 69.3333 99.9089 69.5599 100.211 69.7266C100.513 69.888 100.865 69.9688 101.266 69.9688C101.661 69.9688 102.008 69.888 102.305 69.7266C102.607 69.5599 102.857 69.3333 103.055 69.0469C103.253 68.7604 103.401 68.4323 103.5 68.0625C103.604 67.6875 103.656 67.2891 103.656 66.8672V66.6875C103.656 66.2708 103.604 65.8776 103.5 65.5078C103.401 65.1328 103.25 64.8021 103.047 64.5156C102.849 64.224 102.599 63.9948 102.297 63.8281C102 63.6615 101.651 63.5781 101.25 63.5781C100.854 63.5781 100.505 63.6615 100.203 63.8281C99.9062 63.9948 99.6562 64.224 99.4531 64.5156C99.2552 64.8021 99.1068 65.1328 99.0078 65.5078C98.9089 65.8776 98.8594 66.2708 98.8594 66.6875ZM108.367 64.1719V74.25H106.914V62.5469H108.242L108.367 64.1719ZM114.062 66.7031V66.8672C114.062 67.4818 113.99 68.0521 113.844 68.5781C113.698 69.099 113.484 69.5521 113.203 69.9375C112.927 70.3229 112.586 70.6224 112.18 70.8359C111.773 71.0495 111.307 71.1562 110.781 71.1562C110.245 71.1562 109.771 71.0677 109.359 70.8906C108.948 70.7135 108.599 70.4557 108.312 70.1172C108.026 69.7786 107.797 69.3724 107.625 68.8984C107.458 68.4245 107.344 67.8906 107.281 67.2969V66.4219C107.344 65.7969 107.461 65.237 107.633 64.7422C107.805 64.2474 108.031 63.8255 108.312 63.4766C108.599 63.1224 108.945 62.8542 109.352 62.6719C109.758 62.4844 110.227 62.3906 110.758 62.3906C111.289 62.3906 111.76 62.4948 112.172 62.7031C112.583 62.9062 112.93 63.1979 113.211 63.5781C113.492 63.9583 113.703 64.4141 113.844 64.9453C113.99 65.4714 114.062 66.0573 114.062 66.7031ZM112.609 66.8672V66.7031C112.609 66.2812 112.565 65.8854 112.477 65.5156C112.388 65.1406 112.25 64.8125 112.062 64.5312C111.88 64.2448 111.646 64.0208 111.359 63.8594C111.073 63.6927 110.732 63.6094 110.336 63.6094C109.971 63.6094 109.654 63.6719 109.383 63.7969C109.117 63.9219 108.891 64.0911 108.703 64.3047C108.516 64.513 108.362 64.7526 108.242 65.0234C108.128 65.2891 108.042 65.5651 107.984 65.8516V67.875C108.089 68.2396 108.234 68.5833 108.422 68.9062C108.609 69.224 108.859 69.4818 109.172 69.6797C109.484 69.8724 109.878 69.9688 110.352 69.9688C110.742 69.9688 111.078 69.888 111.359 69.7266C111.646 69.5599 111.88 69.3333 112.062 69.0469C112.25 68.7604 112.388 68.4323 112.477 68.0625C112.565 67.6875 112.609 67.2891 112.609 66.8672ZM117.477 62.5469V71H116.023V62.5469H117.477ZM115.914 60.3047C115.914 60.0703 115.984 59.8724 116.125 59.7109C116.271 59.5495 116.484 59.4688 116.766 59.4688C117.042 59.4688 117.253 59.5495 117.398 59.7109C117.549 59.8724 117.625 60.0703 117.625 60.3047C117.625 60.5286 117.549 60.7214 117.398 60.8828C117.253 61.0391 117.042 61.1172 116.766 61.1172C116.484 61.1172 116.271 61.0391 116.125 60.8828C115.984 60.7214 115.914 60.5286 115.914 60.3047ZM123.18 69.9688C123.523 69.9688 123.841 69.8984 124.133 69.7578C124.424 69.6172 124.664 69.4245 124.852 69.1797C125.039 68.9297 125.146 68.6458 125.172 68.3281H126.547C126.521 68.8281 126.352 69.2943 126.039 69.7266C125.732 70.1536 125.328 70.5 124.828 70.7656C124.328 71.026 123.779 71.1562 123.18 71.1562C122.544 71.1562 121.99 71.0443 121.516 70.8203C121.047 70.5964 120.656 70.2891 120.344 69.8984C120.036 69.5078 119.805 69.0599 119.648 68.5547C119.497 68.0443 119.422 67.5052 119.422 66.9375V66.6094C119.422 66.0417 119.497 65.5052 119.648 65C119.805 64.4896 120.036 64.0391 120.344 63.6484C120.656 63.2578 121.047 62.9505 121.516 62.7266C121.99 62.5026 122.544 62.3906 123.18 62.3906C123.841 62.3906 124.419 62.526 124.914 62.7969C125.409 63.0625 125.797 63.4271 126.078 63.8906C126.365 64.349 126.521 64.8698 126.547 65.4531H125.172C125.146 65.1042 125.047 64.7891 124.875 64.5078C124.708 64.2266 124.479 64.0026 124.188 63.8359C123.901 63.6641 123.565 63.5781 123.18 63.5781C122.737 63.5781 122.365 63.6667 122.062 63.8438C121.766 64.0156 121.529 64.25 121.352 64.5469C121.18 64.8385 121.055 65.1641 120.977 65.5234C120.904 65.8776 120.867 66.2396 120.867 66.6094V66.9375C120.867 67.3073 120.904 67.6719 120.977 68.0312C121.049 68.3906 121.172 68.7161 121.344 69.0078C121.521 69.2995 121.758 69.5339 122.055 69.7109C122.357 69.8828 122.732 69.9688 123.18 69.9688Z" fill="#444444"/>
<rect x="215" y="23" width="91.5" height="2" fill="#A2F07B"/>
<rect x="306.5" y="8" width="32" height="32" rx="16" fill="#A2F07B"/>
<path d="M328.999 19.117L320.942 27.3241L318.001 24.2972C317.848 24.1723 317.603 24.1723 317.48 24.2972L316.592 25.2021C316.469 25.327 316.469 25.5766 316.592 25.7326L320.697 29.883C320.85 30.039 321.065 30.039 321.218 29.883L330.408 20.5213C330.531 20.3965 330.531 20.1468 330.408 19.9908L329.52 19.117C329.397 18.961 329.152 18.961 328.999 19.117Z" fill="#444444"/>
<rect x="338.5" y="23" width="91.5" height="2" fill="#A2F07B"/>
<path d="M300.016 60.6328L296.25 71H294.711L299.047 59.625H300.039L300.016 60.6328ZM303.172 71L299.398 60.6328L299.375 59.625H300.367L304.719 71H303.172ZM302.977 66.7891V68.0234H296.586V66.7891H302.977ZM311.102 69.0469V62.5469H312.555V71H311.172L311.102 69.0469ZM311.375 67.2656L311.977 67.25C311.977 67.8125 311.917 68.3333 311.797 68.8125C311.682 69.2865 311.495 69.6979 311.234 70.0469C310.974 70.3958 310.633 70.6693 310.211 70.8672C309.789 71.0599 309.276 71.1562 308.672 71.1562C308.26 71.1562 307.883 71.0964 307.539 70.9766C307.201 70.8568 306.909 70.6719 306.664 70.4219C306.419 70.1719 306.229 69.8464 306.094 69.4453C305.964 69.0443 305.898 68.5625 305.898 68V62.5469H307.344V68.0156C307.344 68.3958 307.385 68.7109 307.469 68.9609C307.557 69.2057 307.674 69.401 307.82 69.5469C307.971 69.6875 308.138 69.7865 308.32 69.8438C308.508 69.901 308.701 69.9297 308.898 69.9297C309.513 69.9297 310 69.8125 310.359 69.5781C310.719 69.3385 310.977 69.0182 311.133 68.6172C311.294 68.2109 311.375 67.7604 311.375 67.2656ZM318.297 62.5469V63.6562H313.727V62.5469H318.297ZM315.273 60.4922H316.719V68.9062C316.719 69.1927 316.763 69.4089 316.852 69.5547C316.94 69.7005 317.055 69.7969 317.195 69.8438C317.336 69.8906 317.487 69.9141 317.648 69.9141C317.768 69.9141 317.893 69.9036 318.023 69.8828C318.159 69.8568 318.26 69.8359 318.328 69.8203L318.336 71C318.221 71.0365 318.07 71.0703 317.883 71.1016C317.701 71.138 317.479 71.1562 317.219 71.1562C316.865 71.1562 316.539 71.0859 316.242 70.9453C315.945 70.8047 315.708 70.5703 315.531 70.2422C315.359 69.9089 315.273 69.4609 315.273 68.8984V60.4922ZM321.438 59V71H319.992V59H321.438ZM321.094 66.4531L320.492 66.4297C320.497 65.8516 320.583 65.3177 320.75 64.8281C320.917 64.3333 321.151 63.9036 321.453 63.5391C321.755 63.1745 322.115 62.8932 322.531 62.6953C322.953 62.4922 323.419 62.3906 323.93 62.3906C324.346 62.3906 324.721 62.4479 325.055 62.5625C325.388 62.6719 325.672 62.849 325.906 63.0938C326.146 63.3385 326.328 63.6562 326.453 64.0469C326.578 64.4323 326.641 64.9036 326.641 65.4609V71H325.188V65.4453C325.188 65.0026 325.122 64.6484 324.992 64.3828C324.862 64.112 324.672 63.9167 324.422 63.7969C324.172 63.6719 323.865 63.6094 323.5 63.6094C323.141 63.6094 322.812 63.6849 322.516 63.8359C322.224 63.987 321.971 64.1953 321.758 64.4609C321.549 64.7266 321.385 65.0312 321.266 65.375C321.151 65.7135 321.094 66.0729 321.094 66.4531ZM328.422 66.8672V66.6875C328.422 66.0781 328.51 65.513 328.688 64.9922C328.865 64.4661 329.12 64.0104 329.453 63.625C329.786 63.2344 330.19 62.9323 330.664 62.7188C331.138 62.5 331.669 62.3906 332.258 62.3906C332.852 62.3906 333.385 62.5 333.859 62.7188C334.339 62.9323 334.745 63.2344 335.078 63.625C335.417 64.0104 335.674 64.4661 335.852 64.9922C336.029 65.513 336.117 66.0781 336.117 66.6875V66.8672C336.117 67.4766 336.029 68.0417 335.852 68.5625C335.674 69.0833 335.417 69.5391 335.078 69.9297C334.745 70.3151 334.341 70.6172 333.867 70.8359C333.398 71.0495 332.867 71.1562 332.273 71.1562C331.68 71.1562 331.146 71.0495 330.672 70.8359C330.198 70.6172 329.792 70.3151 329.453 69.9297C329.12 69.5391 328.865 69.0833 328.688 68.5625C328.51 68.0417 328.422 67.4766 328.422 66.8672ZM329.867 66.6875V66.8672C329.867 67.2891 329.917 67.6875 330.016 68.0625C330.115 68.4323 330.263 68.7604 330.461 69.0469C330.664 69.3333 330.917 69.5599 331.219 69.7266C331.521 69.888 331.872 69.9688 332.273 69.9688C332.669 69.9688 333.016 69.888 333.312 69.7266C333.615 69.5599 333.865 69.3333 334.062 69.0469C334.26 68.7604 334.409 68.4323 334.508 68.0625C334.612 67.6875 334.664 67.2891 334.664 66.8672V66.6875C334.664 66.2708 334.612 65.8776 334.508 65.5078C334.409 65.1328 334.258 64.8021 334.055 64.5156C333.857 64.224 333.607 63.9948 333.305 63.8281C333.008 63.6615 332.659 63.5781 332.258 63.5781C331.862 63.5781 331.513 63.6615 331.211 63.8281C330.914 63.9948 330.664 64.224 330.461 64.5156C330.263 64.8021 330.115 65.1328 330.016 65.5078C329.917 65.8776 329.867 66.2708 329.867 66.6875ZM339.375 63.875V71H337.93V62.5469H339.336L339.375 63.875ZM342.016 62.5L342.008 63.8438C341.888 63.8177 341.773 63.8021 341.664 63.7969C341.56 63.7865 341.44 63.7812 341.305 63.7812C340.971 63.7812 340.677 63.8333 340.422 63.9375C340.167 64.0417 339.951 64.1875 339.773 64.375C339.596 64.5625 339.456 64.7865 339.352 65.0469C339.253 65.3021 339.188 65.5833 339.156 65.8906L338.75 66.125C338.75 65.6146 338.799 65.1354 338.898 64.6875C339.003 64.2396 339.161 63.8438 339.375 63.5C339.589 63.151 339.859 62.8802 340.188 62.6875C340.521 62.4896 340.917 62.3906 341.375 62.3906C341.479 62.3906 341.599 62.4036 341.734 62.4297C341.87 62.4505 341.964 62.474 342.016 62.5ZM348.273 68.7578C348.273 68.5495 348.227 68.3568 348.133 68.1797C348.044 67.9974 347.859 67.8333 347.578 67.6875C347.302 67.5365 346.885 67.4062 346.328 67.2969C345.859 67.1979 345.435 67.0807 345.055 66.9453C344.68 66.8099 344.359 66.6458 344.094 66.4531C343.833 66.2604 343.633 66.0339 343.492 65.7734C343.352 65.513 343.281 65.2083 343.281 64.8594C343.281 64.526 343.354 64.2109 343.5 63.9141C343.651 63.6172 343.862 63.3542 344.133 63.125C344.409 62.8958 344.74 62.7161 345.125 62.5859C345.51 62.4557 345.94 62.3906 346.414 62.3906C347.091 62.3906 347.669 62.5104 348.148 62.75C348.628 62.9896 348.995 63.3099 349.25 63.7109C349.505 64.1068 349.633 64.5469 349.633 65.0312H348.188C348.188 64.7969 348.117 64.5703 347.977 64.3516C347.841 64.1276 347.641 63.9427 347.375 63.7969C347.115 63.651 346.794 63.5781 346.414 63.5781C346.013 63.5781 345.688 63.6406 345.438 63.7656C345.193 63.8854 345.013 64.0391 344.898 64.2266C344.789 64.4141 344.734 64.612 344.734 64.8203C344.734 64.9766 344.76 65.1172 344.812 65.2422C344.87 65.362 344.969 65.474 345.109 65.5781C345.25 65.6771 345.448 65.7708 345.703 65.8594C345.958 65.9479 346.284 66.0365 346.68 66.125C347.372 66.2812 347.943 66.4688 348.391 66.6875C348.839 66.9062 349.172 67.1745 349.391 67.4922C349.609 67.8099 349.719 68.1953 349.719 68.6484C349.719 69.0182 349.641 69.3568 349.484 69.6641C349.333 69.9714 349.112 70.237 348.82 70.4609C348.534 70.6797 348.19 70.8516 347.789 70.9766C347.393 71.0964 346.948 71.1562 346.453 71.1562C345.708 71.1562 345.078 71.0234 344.562 70.7578C344.047 70.4922 343.656 70.1484 343.391 69.7266C343.125 69.3047 342.992 68.8594 342.992 68.3906H344.445C344.466 68.7865 344.581 69.1016 344.789 69.3359C344.997 69.5651 345.253 69.7292 345.555 69.8281C345.857 69.9219 346.156 69.9688 346.453 69.9688C346.849 69.9688 347.18 69.9167 347.445 69.8125C347.716 69.7083 347.922 69.5651 348.062 69.3828C348.203 69.2005 348.273 68.9922 348.273 68.7578Z" fill="#444444"/>
<rect x="430" y="23" width="85.5" height="2" fill="#A2F07B"/>
<rect x="515.5" y="2" width="44" height="44" rx="22" fill="#A2F07B"/>
<rect x="519.5" y="6" width="36" height="36" rx="18" fill="#A2F07B"/>
<rect x="519.5" y="6" width="36" height="36" rx="18" stroke="white" stroke-width="4"/>
<path d="M536.055 22.6016H537.086C537.591 22.6016 538.008 22.5182 538.336 22.3516C538.669 22.1797 538.917 21.9479 539.078 21.6562C539.245 21.3594 539.328 21.026 539.328 20.6562C539.328 20.2188 539.255 19.8516 539.109 19.5547C538.964 19.2578 538.745 19.0339 538.453 18.8828C538.161 18.7318 537.792 18.6562 537.344 18.6562C536.938 18.6562 536.578 18.737 536.266 18.8984C535.958 19.0547 535.716 19.2786 535.539 19.5703C535.367 19.862 535.281 20.2057 535.281 20.6016H533.836C533.836 20.0234 533.982 19.4974 534.273 19.0234C534.565 18.5495 534.974 18.1719 535.5 17.8906C536.031 17.6094 536.646 17.4688 537.344 17.4688C538.031 17.4688 538.633 17.5911 539.148 17.8359C539.664 18.0755 540.065 18.4349 540.352 18.9141C540.638 19.388 540.781 19.9792 540.781 20.6875C540.781 20.974 540.714 21.2812 540.578 21.6094C540.448 21.9323 540.242 22.2344 539.961 22.5156C539.685 22.7969 539.326 23.0286 538.883 23.2109C538.44 23.388 537.909 23.4766 537.289 23.4766H536.055V22.6016ZM536.055 23.7891V22.9219H537.289C538.013 22.9219 538.612 23.0078 539.086 23.1797C539.56 23.3516 539.932 23.5807 540.203 23.8672C540.479 24.1536 540.672 24.4688 540.781 24.8125C540.896 25.151 540.953 25.4896 540.953 25.8281C540.953 26.3594 540.862 26.8307 540.68 27.2422C540.503 27.6536 540.25 28.0026 539.922 28.2891C539.599 28.5755 539.219 28.7917 538.781 28.9375C538.344 29.0833 537.867 29.1562 537.352 29.1562C536.857 29.1562 536.391 29.0859 535.953 28.9453C535.521 28.8047 535.138 28.6016 534.805 28.3359C534.471 28.0651 534.211 27.7344 534.023 27.3438C533.836 26.9479 533.742 26.4974 533.742 25.9922H535.188C535.188 26.388 535.273 26.7344 535.445 27.0312C535.622 27.3281 535.872 27.5599 536.195 27.7266C536.523 27.888 536.909 27.9688 537.352 27.9688C537.794 27.9688 538.174 27.8932 538.492 27.7422C538.815 27.5859 539.062 27.3516 539.234 27.0391C539.411 26.7266 539.5 26.3333 539.5 25.8594C539.5 25.3854 539.401 24.9974 539.203 24.6953C539.005 24.388 538.724 24.1615 538.359 24.0156C538 23.8646 537.576 23.7891 537.086 23.7891H536.055Z" fill="#444444"/>
<rect x="559.5" y="23" width="85.5" height="2" fill="#A2F07B"/>
<path d="M511.43 59.625V71H509.469V59.625H511.43ZM518.266 59.625L513.656 65.1016L511.031 67.8828L510.688 65.9375L512.562 63.625L515.875 59.625H518.266ZM516.156 71L512.414 65.6094L513.766 64.2734L518.484 71H516.156ZM522.914 71.1562C522.289 71.1562 521.724 71.0547 521.219 70.8516C520.719 70.6432 520.292 70.3542 519.938 69.9844C519.589 69.6146 519.32 69.1797 519.133 68.6797C518.945 68.1797 518.852 67.6406 518.852 67.0625V66.75C518.852 66.0885 518.948 65.4896 519.141 64.9531C519.333 64.4167 519.602 63.9583 519.945 63.5781C520.289 63.1927 520.695 62.8984 521.164 62.6953C521.633 62.4922 522.141 62.3906 522.688 62.3906C523.292 62.3906 523.82 62.4922 524.273 62.6953C524.727 62.8984 525.102 63.1849 525.398 63.5547C525.701 63.9193 525.924 64.3542 526.07 64.8594C526.221 65.3646 526.297 65.9219 526.297 66.5312V67.3359H519.766V65.9844H524.438V65.8359C524.427 65.4974 524.359 65.1797 524.234 64.8828C524.115 64.5859 523.93 64.3464 523.68 64.1641C523.43 63.9818 523.096 63.8906 522.68 63.8906C522.367 63.8906 522.089 63.9583 521.844 64.0938C521.604 64.224 521.404 64.4141 521.242 64.6641C521.081 64.9141 520.956 65.2161 520.867 65.5703C520.784 65.9193 520.742 66.3125 520.742 66.75V67.0625C520.742 67.4323 520.792 67.776 520.891 68.0938C520.995 68.4062 521.146 68.6797 521.344 68.9141C521.542 69.1484 521.781 69.3333 522.062 69.4688C522.344 69.599 522.664 69.6641 523.023 69.6641C523.477 69.6641 523.88 69.5729 524.234 69.3906C524.589 69.2083 524.896 68.9505 525.156 68.6172L526.148 69.5781C525.966 69.8438 525.729 70.099 525.438 70.3438C525.146 70.5833 524.789 70.7786 524.367 70.9297C523.951 71.0807 523.466 71.1562 522.914 71.1562ZM530.109 70.0781L532.406 62.5469H534.422L531.031 72.2891C530.953 72.4974 530.852 72.724 530.727 72.9688C530.602 73.2135 530.438 73.4453 530.234 73.6641C530.036 73.888 529.789 74.0677 529.492 74.2031C529.195 74.3438 528.836 74.4141 528.414 74.4141C528.247 74.4141 528.086 74.3984 527.93 74.3672C527.779 74.3411 527.635 74.3125 527.5 74.2812L527.492 72.8438C527.544 72.849 527.607 72.8542 527.68 72.8594C527.758 72.8646 527.82 72.8672 527.867 72.8672C528.18 72.8672 528.44 72.8281 528.648 72.75C528.857 72.6771 529.026 72.5573 529.156 72.3906C529.292 72.224 529.406 72 529.5 71.7188L530.109 70.0781ZM528.812 62.5469L530.82 68.875L531.156 70.8594L529.852 71.1953L526.781 62.5469H528.812ZM541.766 59.625V71H539.805V59.625H541.766ZM545.883 64.3516V71H544V62.5469H545.773L545.883 64.3516ZM545.547 66.4609L544.938 66.4531C544.943 65.8542 545.026 65.3047 545.188 64.8047C545.354 64.3047 545.583 63.875 545.875 63.5156C546.172 63.1562 546.526 62.8802 546.938 62.6875C547.349 62.4896 547.807 62.3906 548.312 62.3906C548.719 62.3906 549.086 62.4479 549.414 62.5625C549.747 62.6719 550.031 62.8516 550.266 63.1016C550.505 63.3516 550.688 63.6771 550.812 64.0781C550.938 64.474 551 64.9609 551 65.5391V71H549.109V65.5312C549.109 65.125 549.049 64.8047 548.93 64.5703C548.815 64.3307 548.646 64.1615 548.422 64.0625C548.203 63.9583 547.93 63.9062 547.602 63.9062C547.279 63.9062 546.99 63.974 546.734 64.1094C546.479 64.2448 546.263 64.4297 546.086 64.6641C545.914 64.8984 545.781 65.1693 545.688 65.4766C545.594 65.7839 545.547 66.112 545.547 66.4609ZM555.469 71H553.586V61.7344C553.586 61.1042 553.703 60.5755 553.938 60.1484C554.177 59.7161 554.518 59.3906 554.961 59.1719C555.404 58.9479 555.927 58.8359 556.531 58.8359C556.719 58.8359 556.904 58.849 557.086 58.875C557.268 58.8958 557.445 58.9297 557.617 58.9766L557.57 60.4297C557.466 60.4036 557.352 60.3854 557.227 60.375C557.107 60.3646 556.977 60.3594 556.836 60.3594C556.549 60.3594 556.302 60.4141 556.094 60.5234C555.891 60.6276 555.734 60.7812 555.625 60.9844C555.521 61.1875 555.469 61.4375 555.469 61.7344V71ZM557.211 62.5469V63.9219H552.289V62.5469H557.211ZM558.219 66.8672V66.6875C558.219 66.0781 558.307 65.513 558.484 64.9922C558.661 64.4661 558.917 64.0104 559.25 63.625C559.589 63.2344 560 62.9323 560.484 62.7188C560.974 62.5 561.526 62.3906 562.141 62.3906C562.76 62.3906 563.312 62.5 563.797 62.7188C564.286 62.9323 564.701 63.2344 565.039 63.625C565.378 64.0104 565.635 64.4661 565.812 64.9922C565.99 65.513 566.078 66.0781 566.078 66.6875V66.8672C566.078 67.4766 565.99 68.0417 565.812 68.5625C565.635 69.0833 565.378 69.5391 565.039 69.9297C564.701 70.3151 564.289 70.6172 563.805 70.8359C563.32 71.0495 562.771 71.1562 562.156 71.1562C561.536 71.1562 560.982 71.0495 560.492 70.8359C560.008 70.6172 559.596 70.3151 559.258 69.9297C558.919 69.5391 558.661 69.0833 558.484 68.5625C558.307 68.0417 558.219 67.4766 558.219 66.8672ZM560.102 66.6875V66.8672C560.102 67.2474 560.141 67.6068 560.219 67.9453C560.297 68.2839 560.419 68.5807 560.586 68.8359C560.753 69.0911 560.966 69.2917 561.227 69.4375C561.487 69.5833 561.797 69.6562 562.156 69.6562C562.505 69.6562 562.807 69.5833 563.062 69.4375C563.323 69.2917 563.536 69.0911 563.703 68.8359C563.87 68.5807 563.992 68.2839 564.07 67.9453C564.154 67.6068 564.195 67.2474 564.195 66.8672V66.6875C564.195 66.3125 564.154 65.9583 564.07 65.625C563.992 65.2865 563.867 64.987 563.695 64.7266C563.529 64.4661 563.315 64.263 563.055 64.1172C562.799 63.9661 562.495 63.8906 562.141 63.8906C561.786 63.8906 561.479 63.9661 561.219 64.1172C560.964 64.263 560.753 64.4661 560.586 64.7266C560.419 64.987 560.297 65.2865 560.219 65.625C560.141 65.9583 560.102 66.3125 560.102 66.6875Z" fill="#444444"/>
<rect x="645" y="23" width="91.5" height="2" fill="#DCDCDC"/>
<rect x="736.5" y="8" width="32" height="32" rx="16" fill="#DCDCDC"/>
<path d="M756.633 25.1719V26.3594H748.414V25.5078L753.508 17.625H754.688L753.422 19.9062L750.055 25.1719H756.633ZM755.047 17.625V29H753.602V17.625H755.047Z" fill="#444444"/>
<rect x="768.5" y="23" width="91.5" height="2" fill="#DCDCDC"/>
<path d="M720.758 69.2734L724.109 59.625H725.742L721.531 71H720.367L720.758 69.2734ZM717.625 59.625L720.945 69.2734L721.359 71H720.195L715.992 59.625H717.625ZM731.68 69.5547V65.2031C731.68 64.8698 731.612 64.5807 731.477 64.3359C731.346 64.0859 731.148 63.8932 730.883 63.7578C730.617 63.6224 730.289 63.5547 729.898 63.5547C729.534 63.5547 729.214 63.6172 728.938 63.7422C728.667 63.8672 728.453 64.0312 728.297 64.2344C728.146 64.4375 728.07 64.6562 728.07 64.8906H726.625C726.625 64.5885 726.703 64.2891 726.859 63.9922C727.016 63.6953 727.24 63.4271 727.531 63.1875C727.828 62.9427 728.182 62.75 728.594 62.6094C729.01 62.4635 729.474 62.3906 729.984 62.3906C730.599 62.3906 731.141 62.4948 731.609 62.7031C732.083 62.9115 732.453 63.2266 732.719 63.6484C732.99 64.0651 733.125 64.5885 733.125 65.2188V69.1562C733.125 69.4375 733.148 69.737 733.195 70.0547C733.247 70.3724 733.323 70.6458 733.422 70.875V71H731.914C731.841 70.8333 731.784 70.612 731.742 70.3359C731.701 70.0547 731.68 69.7943 731.68 69.5547ZM731.93 65.875L731.945 66.8906H730.484C730.073 66.8906 729.706 66.9245 729.383 66.9922C729.06 67.0547 728.789 67.151 728.57 67.2812C728.352 67.4115 728.185 67.5755 728.07 67.7734C727.956 67.9661 727.898 68.1927 727.898 68.4531C727.898 68.7188 727.958 68.9609 728.078 69.1797C728.198 69.3984 728.378 69.5729 728.617 69.7031C728.862 69.8281 729.161 69.8906 729.516 69.8906C729.958 69.8906 730.349 69.7969 730.688 69.6094C731.026 69.4219 731.294 69.1927 731.492 68.9219C731.695 68.651 731.805 68.388 731.82 68.1328L732.438 68.8281C732.401 69.0469 732.302 69.2891 732.141 69.5547C731.979 69.8203 731.763 70.0755 731.492 70.3203C731.227 70.5599 730.909 70.7604 730.539 70.9219C730.174 71.0781 729.763 71.1562 729.305 71.1562C728.732 71.1562 728.229 71.0443 727.797 70.8203C727.37 70.5964 727.036 70.2969 726.797 69.9219C726.562 69.5417 726.445 69.1172 726.445 68.6484C726.445 68.1953 726.534 67.7969 726.711 67.4531C726.888 67.1042 727.143 66.8151 727.477 66.5859C727.81 66.3516 728.211 66.1745 728.68 66.0547C729.148 65.9349 729.672 65.875 730.25 65.875H731.93ZM738.781 69.9688C739.125 69.9688 739.443 69.8984 739.734 69.7578C740.026 69.6172 740.266 69.4245 740.453 69.1797C740.641 68.9297 740.747 68.6458 740.773 68.3281H742.148C742.122 68.8281 741.953 69.2943 741.641 69.7266C741.333 70.1536 740.93 70.5 740.43 70.7656C739.93 71.026 739.38 71.1562 738.781 71.1562C738.146 71.1562 737.591 71.0443 737.117 70.8203C736.648 70.5964 736.258 70.2891 735.945 69.8984C735.638 69.5078 735.406 69.0599 735.25 68.5547C735.099 68.0443 735.023 67.5052 735.023 66.9375V66.6094C735.023 66.0417 735.099 65.5052 735.25 65C735.406 64.4896 735.638 64.0391 735.945 63.6484C736.258 63.2578 736.648 62.9505 737.117 62.7266C737.591 62.5026 738.146 62.3906 738.781 62.3906C739.443 62.3906 740.021 62.526 740.516 62.7969C741.01 63.0625 741.398 63.4271 741.68 63.8906C741.966 64.349 742.122 64.8698 742.148 65.4531H740.773C740.747 65.1042 740.648 64.7891 740.477 64.5078C740.31 64.2266 740.081 64.0026 739.789 63.8359C739.503 63.6641 739.167 63.5781 738.781 63.5781C738.339 63.5781 737.966 63.6667 737.664 63.8438C737.367 64.0156 737.13 64.25 736.953 64.5469C736.781 64.8385 736.656 65.1641 736.578 65.5234C736.505 65.8776 736.469 66.2396 736.469 66.6094V66.9375C736.469 67.3073 736.505 67.6719 736.578 68.0312C736.651 68.3906 736.773 68.7161 736.945 69.0078C737.122 69.2995 737.359 69.5339 737.656 69.7109C737.958 69.8828 738.333 69.9688 738.781 69.9688ZM748.758 69.5547V65.2031C748.758 64.8698 748.69 64.5807 748.555 64.3359C748.424 64.0859 748.227 63.8932 747.961 63.7578C747.695 63.6224 747.367 63.5547 746.977 63.5547C746.612 63.5547 746.292 63.6172 746.016 63.7422C745.745 63.8672 745.531 64.0312 745.375 64.2344C745.224 64.4375 745.148 64.6562 745.148 64.8906H743.703C743.703 64.5885 743.781 64.2891 743.938 63.9922C744.094 63.6953 744.318 63.4271 744.609 63.1875C744.906 62.9427 745.26 62.75 745.672 62.6094C746.089 62.4635 746.552 62.3906 747.062 62.3906C747.677 62.3906 748.219 62.4948 748.688 62.7031C749.161 62.9115 749.531 63.2266 749.797 63.6484C750.068 64.0651 750.203 64.5885 750.203 65.2188V69.1562C750.203 69.4375 750.227 69.737 750.273 70.0547C750.326 70.3724 750.401 70.6458 750.5 70.875V71H748.992C748.919 70.8333 748.862 70.612 748.82 70.3359C748.779 70.0547 748.758 69.7943 748.758 69.5547ZM749.008 65.875L749.023 66.8906H747.562C747.151 66.8906 746.784 66.9245 746.461 66.9922C746.138 67.0547 745.867 67.151 745.648 67.2812C745.43 67.4115 745.263 67.5755 745.148 67.7734C745.034 67.9661 744.977 68.1927 744.977 68.4531C744.977 68.7188 745.036 68.9609 745.156 69.1797C745.276 69.3984 745.456 69.5729 745.695 69.7031C745.94 69.8281 746.24 69.8906 746.594 69.8906C747.036 69.8906 747.427 69.7969 747.766 69.6094C748.104 69.4219 748.372 69.1927 748.57 68.9219C748.773 68.651 748.883 68.388 748.898 68.1328L749.516 68.8281C749.479 69.0469 749.38 69.2891 749.219 69.5547C749.057 69.8203 748.841 70.0755 748.57 70.3203C748.305 70.5599 747.987 70.7604 747.617 70.9219C747.253 71.0781 746.841 71.1562 746.383 71.1562C745.81 71.1562 745.307 71.0443 744.875 70.8203C744.448 70.5964 744.115 70.2969 743.875 69.9219C743.641 69.5417 743.523 69.1172 743.523 68.6484C743.523 68.1953 743.612 67.7969 743.789 67.4531C743.966 67.1042 744.221 66.8151 744.555 66.5859C744.888 66.3516 745.289 66.1745 745.758 66.0547C746.227 65.9349 746.75 65.875 747.328 65.875H749.008ZM753.922 64.3516V71H752.477V62.5469H753.844L753.922 64.3516ZM753.578 66.4531L752.977 66.4297C752.982 65.8516 753.068 65.3177 753.234 64.8281C753.401 64.3333 753.635 63.9036 753.938 63.5391C754.24 63.1745 754.599 62.8932 755.016 62.6953C755.438 62.4922 755.904 62.3906 756.414 62.3906C756.831 62.3906 757.206 62.4479 757.539 62.5625C757.872 62.6719 758.156 62.849 758.391 63.0938C758.63 63.3385 758.812 63.6562 758.938 64.0469C759.062 64.4323 759.125 64.9036 759.125 65.4609V71H757.672V65.4453C757.672 65.0026 757.607 64.6484 757.477 64.3828C757.346 64.112 757.156 63.9167 756.906 63.7969C756.656 63.6719 756.349 63.6094 755.984 63.6094C755.625 63.6094 755.297 63.6849 755 63.8359C754.708 63.987 754.456 64.1953 754.242 64.4609C754.034 64.7266 753.87 65.0312 753.75 65.375C753.635 65.7135 753.578 66.0729 753.578 66.4531ZM764.703 69.9688C765.047 69.9688 765.365 69.8984 765.656 69.7578C765.948 69.6172 766.188 69.4245 766.375 69.1797C766.562 68.9297 766.669 68.6458 766.695 68.3281H768.07C768.044 68.8281 767.875 69.2943 767.562 69.7266C767.255 70.1536 766.852 70.5 766.352 70.7656C765.852 71.026 765.302 71.1562 764.703 71.1562C764.068 71.1562 763.513 71.0443 763.039 70.8203C762.57 70.5964 762.18 70.2891 761.867 69.8984C761.56 69.5078 761.328 69.0599 761.172 68.5547C761.021 68.0443 760.945 67.5052 760.945 66.9375V66.6094C760.945 66.0417 761.021 65.5052 761.172 65C761.328 64.4896 761.56 64.0391 761.867 63.6484C762.18 63.2578 762.57 62.9505 763.039 62.7266C763.513 62.5026 764.068 62.3906 764.703 62.3906C765.365 62.3906 765.943 62.526 766.438 62.7969C766.932 63.0625 767.32 63.4271 767.602 63.8906C767.888 64.349 768.044 64.8698 768.07 65.4531H766.695C766.669 65.1042 766.57 64.7891 766.398 64.5078C766.232 64.2266 766.003 64.0026 765.711 63.8359C765.424 63.6641 765.089 63.5781 764.703 63.5781C764.26 63.5781 763.888 63.6667 763.586 63.8438C763.289 64.0156 763.052 64.25 762.875 64.5469C762.703 64.8385 762.578 65.1641 762.5 65.5234C762.427 65.8776 762.391 66.2396 762.391 66.6094V66.9375C762.391 67.3073 762.427 67.6719 762.5 68.0312C762.573 68.3906 762.695 68.7161 762.867 69.0078C763.044 69.2995 763.281 69.5339 763.578 69.7109C763.88 69.8828 764.255 69.9688 764.703 69.9688ZM771.266 62.5469V71H769.812V62.5469H771.266ZM769.703 60.3047C769.703 60.0703 769.773 59.8724 769.914 59.7109C770.06 59.5495 770.273 59.4688 770.555 59.4688C770.831 59.4688 771.042 59.5495 771.188 59.7109C771.339 59.8724 771.414 60.0703 771.414 60.3047C771.414 60.5286 771.339 60.7214 771.188 60.8828C771.042 61.0391 770.831 61.1172 770.555 61.1172C770.273 61.1172 770.06 61.0391 769.914 60.8828C769.773 60.7214 769.703 60.5286 769.703 60.3047ZM777.094 71.1562C776.505 71.1562 775.971 71.0573 775.492 70.8594C775.018 70.6562 774.609 70.3724 774.266 70.0078C773.927 69.6432 773.667 69.2109 773.484 68.7109C773.302 68.2109 773.211 67.6641 773.211 67.0703V66.7422C773.211 66.0547 773.312 65.4427 773.516 64.9062C773.719 64.3646 773.995 63.9062 774.344 63.5312C774.693 63.1562 775.089 62.8724 775.531 62.6797C775.974 62.487 776.432 62.3906 776.906 62.3906C777.51 62.3906 778.031 62.4948 778.469 62.7031C778.911 62.9115 779.273 63.2031 779.555 63.5781C779.836 63.9479 780.044 64.3854 780.18 64.8906C780.315 65.3906 780.383 65.9375 780.383 66.5312V67.1797H774.07V66H778.938V65.8906C778.917 65.5156 778.839 65.151 778.703 64.7969C778.573 64.4427 778.365 64.151 778.078 63.9219C777.792 63.6927 777.401 63.5781 776.906 63.5781C776.578 63.5781 776.276 63.6484 776 63.7891C775.724 63.9245 775.487 64.1276 775.289 64.3984C775.091 64.6693 774.938 65 774.828 65.3906C774.719 65.7812 774.664 66.2318 774.664 66.7422V67.0703C774.664 67.4714 774.719 67.849 774.828 68.2031C774.943 68.5521 775.107 68.8594 775.32 69.125C775.539 69.3906 775.802 69.599 776.109 69.75C776.422 69.901 776.776 69.9766 777.172 69.9766C777.682 69.9766 778.115 69.8724 778.469 69.6641C778.823 69.4557 779.133 69.1771 779.398 68.8281L780.273 69.5234C780.091 69.7995 779.859 70.0625 779.578 70.3125C779.297 70.5625 778.951 70.7656 778.539 70.9219C778.133 71.0781 777.651 71.1562 777.094 71.1562ZM786.992 68.7578C786.992 68.5495 786.945 68.3568 786.852 68.1797C786.763 67.9974 786.578 67.8333 786.297 67.6875C786.021 67.5365 785.604 67.4062 785.047 67.2969C784.578 67.1979 784.154 67.0807 783.773 66.9453C783.398 66.8099 783.078 66.6458 782.812 66.4531C782.552 66.2604 782.352 66.0339 782.211 65.7734C782.07 65.513 782 65.2083 782 64.8594C782 64.526 782.073 64.2109 782.219 63.9141C782.37 63.6172 782.581 63.3542 782.852 63.125C783.128 62.8958 783.458 62.7161 783.844 62.5859C784.229 62.4557 784.659 62.3906 785.133 62.3906C785.81 62.3906 786.388 62.5104 786.867 62.75C787.346 62.9896 787.714 63.3099 787.969 63.7109C788.224 64.1068 788.352 64.5469 788.352 65.0312H786.906C786.906 64.7969 786.836 64.5703 786.695 64.3516C786.56 64.1276 786.359 63.9427 786.094 63.7969C785.833 63.651 785.513 63.5781 785.133 63.5781C784.732 63.5781 784.406 63.6406 784.156 63.7656C783.911 63.8854 783.732 64.0391 783.617 64.2266C783.508 64.4141 783.453 64.612 783.453 64.8203C783.453 64.9766 783.479 65.1172 783.531 65.2422C783.589 65.362 783.688 65.474 783.828 65.5781C783.969 65.6771 784.167 65.7708 784.422 65.8594C784.677 65.9479 785.003 66.0365 785.398 66.125C786.091 66.2812 786.661 66.4688 787.109 66.6875C787.557 66.9062 787.891 67.1745 788.109 67.4922C788.328 67.8099 788.438 68.1953 788.438 68.6484C788.438 69.0182 788.359 69.3568 788.203 69.6641C788.052 69.9714 787.831 70.237 787.539 70.4609C787.253 70.6797 786.909 70.8516 786.508 70.9766C786.112 71.0964 785.667 71.1562 785.172 71.1562C784.427 71.1562 783.797 71.0234 783.281 70.7578C782.766 70.4922 782.375 70.1484 782.109 69.7266C781.844 69.3047 781.711 68.8594 781.711 68.3906H783.164C783.185 68.7865 783.299 69.1016 783.508 69.3359C783.716 69.5651 783.971 69.7292 784.273 69.8281C784.576 69.9219 784.875 69.9688 785.172 69.9688C785.568 69.9688 785.898 69.9167 786.164 69.8125C786.435 69.7083 786.641 69.5651 786.781 69.3828C786.922 69.2005 786.992 68.9922 786.992 68.7578Z" fill="#444444"/>
<rect x="860" y="23" width="91.5" height="2" fill="#DCDCDC"/>
<rect x="951.5" y="8" width="32" height="32" rx="16" fill="#DCDCDC"/>
<path d="M965.773 23.5859L964.617 23.2891L965.188 17.625H971.023V18.9609H966.414L966.07 22.0547C966.279 21.9349 966.542 21.8229 966.859 21.7188C967.182 21.6146 967.552 21.5625 967.969 21.5625C968.495 21.5625 968.966 21.6536 969.383 21.8359C969.799 22.013 970.154 22.2682 970.445 22.6016C970.742 22.9349 970.969 23.3359 971.125 23.8047C971.281 24.2734 971.359 24.7969 971.359 25.375C971.359 25.9219 971.284 26.4245 971.133 26.8828C970.987 27.3411 970.766 27.7422 970.469 28.0859C970.172 28.4245 969.797 28.6875 969.344 28.875C968.896 29.0625 968.367 29.1562 967.758 29.1562C967.299 29.1562 966.865 29.0938 966.453 28.9688C966.047 28.8385 965.682 28.6432 965.359 28.3828C965.042 28.1172 964.781 27.7891 964.578 27.3984C964.38 27.0026 964.255 26.5391 964.203 26.0078H965.578C965.641 26.4349 965.766 26.7943 965.953 27.0859C966.141 27.3776 966.385 27.599 966.688 27.75C966.995 27.8958 967.352 27.9688 967.758 27.9688C968.102 27.9688 968.406 27.9089 968.672 27.7891C968.938 27.6693 969.161 27.4974 969.344 27.2734C969.526 27.0495 969.664 26.7786 969.758 26.4609C969.857 26.1432 969.906 25.7865 969.906 25.3906C969.906 25.0312 969.857 24.6979 969.758 24.3906C969.659 24.0833 969.51 23.8151 969.312 23.5859C969.12 23.3568 968.883 23.1797 968.602 23.0547C968.32 22.9245 967.997 22.8594 967.633 22.8594C967.148 22.8594 966.781 22.9245 966.531 23.0547C966.286 23.1849 966.034 23.362 965.773 23.5859Z" fill="#444444"/>
<path d="M949.648 68.125C949.648 67.8594 949.607 67.625 949.523 67.4219C949.445 67.2135 949.305 67.026 949.102 66.8594C948.904 66.6927 948.628 66.5339 948.273 66.3828C947.924 66.2318 947.482 66.0781 946.945 65.9219C946.383 65.7552 945.875 65.5703 945.422 65.3672C944.969 65.1589 944.581 64.9219 944.258 64.6562C943.935 64.3906 943.688 64.0859 943.516 63.7422C943.344 63.3984 943.258 63.0052 943.258 62.5625C943.258 62.1198 943.349 61.7109 943.531 61.3359C943.714 60.9609 943.974 60.6354 944.312 60.3594C944.656 60.0781 945.065 59.8594 945.539 59.7031C946.013 59.5469 946.542 59.4688 947.125 59.4688C947.979 59.4688 948.703 59.6328 949.297 59.9609C949.896 60.2839 950.352 60.7083 950.664 61.2344C950.977 61.7552 951.133 62.3125 951.133 62.9062H949.633C949.633 62.4792 949.542 62.1016 949.359 61.7734C949.177 61.4401 948.901 61.1797 948.531 60.9922C948.161 60.7995 947.693 60.7031 947.125 60.7031C946.589 60.7031 946.146 60.7839 945.797 60.9453C945.448 61.1068 945.188 61.3255 945.016 61.6016C944.849 61.8776 944.766 62.1927 944.766 62.5469C944.766 62.7865 944.815 63.0052 944.914 63.2031C945.018 63.3958 945.177 63.5755 945.391 63.7422C945.609 63.9089 945.885 64.0625 946.219 64.2031C946.557 64.3438 946.961 64.4792 947.43 64.6094C948.076 64.7917 948.633 64.9948 949.102 65.2188C949.57 65.4427 949.956 65.6953 950.258 65.9766C950.565 66.2526 950.792 66.5677 950.938 66.9219C951.089 67.2708 951.164 67.6667 951.164 68.1094C951.164 68.5729 951.07 68.9922 950.883 69.3672C950.695 69.7422 950.427 70.0625 950.078 70.3281C949.729 70.5938 949.31 70.7995 948.82 70.9453C948.336 71.0859 947.794 71.1562 947.195 71.1562C946.669 71.1562 946.151 71.0833 945.641 70.9375C945.135 70.7917 944.674 70.5729 944.258 70.2812C943.846 69.9896 943.516 69.6302 943.266 69.2031C943.021 68.7708 942.898 68.2708 942.898 67.7031H944.398C944.398 68.0938 944.474 68.4297 944.625 68.7109C944.776 68.987 944.982 69.2161 945.242 69.3984C945.508 69.5807 945.807 69.7161 946.141 69.8047C946.479 69.888 946.831 69.9297 947.195 69.9297C947.721 69.9297 948.167 69.8568 948.531 69.7109C948.896 69.5651 949.172 69.3568 949.359 69.0859C949.552 68.8151 949.648 68.4948 949.648 68.125ZM958.039 69.0469V62.5469H959.492V71H958.109L958.039 69.0469ZM958.312 67.2656L958.914 67.25C958.914 67.8125 958.854 68.3333 958.734 68.8125C958.62 69.2865 958.432 69.6979 958.172 70.0469C957.911 70.3958 957.57 70.6693 957.148 70.8672C956.727 71.0599 956.214 71.1562 955.609 71.1562C955.198 71.1562 954.82 71.0964 954.477 70.9766C954.138 70.8568 953.846 70.6719 953.602 70.4219C953.357 70.1719 953.167 69.8464 953.031 69.4453C952.901 69.0443 952.836 68.5625 952.836 68V62.5469H954.281V68.0156C954.281 68.3958 954.323 68.7109 954.406 68.9609C954.495 69.2057 954.612 69.401 954.758 69.5469C954.909 69.6875 955.076 69.7865 955.258 69.8438C955.445 69.901 955.638 69.9297 955.836 69.9297C956.451 69.9297 956.938 69.8125 957.297 69.5781C957.656 69.3385 957.914 69.0182 958.07 68.6172C958.232 68.2109 958.312 67.7604 958.312 67.2656ZM961.688 59H963.141V69.3594L963.016 71H961.688V59ZM968.852 66.7031V66.8672C968.852 67.4818 968.779 68.0521 968.633 68.5781C968.487 69.099 968.273 69.5521 967.992 69.9375C967.711 70.3229 967.367 70.6224 966.961 70.8359C966.555 71.0495 966.089 71.1562 965.562 71.1562C965.026 71.1562 964.555 71.0651 964.148 70.8828C963.747 70.6953 963.409 70.4271 963.133 70.0781C962.857 69.7292 962.635 69.3073 962.469 68.8125C962.307 68.3177 962.195 67.7604 962.133 67.1406V66.4219C962.195 65.7969 962.307 65.237 962.469 64.7422C962.635 64.2474 962.857 63.8255 963.133 63.4766C963.409 63.1224 963.747 62.8542 964.148 62.6719C964.549 62.4844 965.016 62.3906 965.547 62.3906C966.078 62.3906 966.549 62.4948 966.961 62.7031C967.372 62.9062 967.716 63.1979 967.992 63.5781C968.273 63.9583 968.487 64.4141 968.633 64.9453C968.779 65.4714 968.852 66.0573 968.852 66.7031ZM967.398 66.8672V66.7031C967.398 66.2812 967.359 65.8854 967.281 65.5156C967.203 65.1406 967.078 64.8125 966.906 64.5312C966.734 64.2448 966.508 64.0208 966.227 63.8594C965.945 63.6927 965.599 63.6094 965.188 63.6094C964.823 63.6094 964.505 63.6719 964.234 63.7969C963.969 63.9219 963.742 64.0911 963.555 64.3047C963.367 64.513 963.214 64.7526 963.094 65.0234C962.979 65.2891 962.893 65.5651 962.836 65.8516V67.7344C962.919 68.099 963.055 68.4505 963.242 68.7891C963.435 69.1224 963.69 69.3958 964.008 69.6094C964.331 69.8229 964.729 69.9297 965.203 69.9297C965.594 69.9297 965.927 69.8516 966.203 69.6953C966.484 69.5339 966.711 69.3125 966.883 69.0312C967.06 68.75 967.19 68.4245 967.273 68.0547C967.357 67.6849 967.398 67.2891 967.398 66.8672ZM972.117 64.2266V71H970.664V62.5469H972.039L972.117 64.2266ZM971.82 66.4531L971.148 66.4297C971.154 65.8516 971.229 65.3177 971.375 64.8281C971.521 64.3333 971.737 63.9036 972.023 63.5391C972.31 63.1745 972.667 62.8932 973.094 62.6953C973.521 62.4922 974.016 62.3906 974.578 62.3906C974.974 62.3906 975.339 62.4479 975.672 62.5625C976.005 62.6719 976.294 62.8464 976.539 63.0859C976.784 63.3255 976.974 63.6328 977.109 64.0078C977.245 64.3828 977.312 64.8359 977.312 65.3672V71H975.867V65.4375C975.867 64.9948 975.792 64.6406 975.641 64.375C975.495 64.1094 975.286 63.9167 975.016 63.7969C974.745 63.6719 974.427 63.6094 974.062 63.6094C973.635 63.6094 973.279 63.6849 972.992 63.8359C972.706 63.987 972.477 64.1953 972.305 64.4609C972.133 64.7266 972.008 65.0312 971.93 65.375C971.857 65.7135 971.82 66.0729 971.82 66.4531ZM977.297 65.6562L976.328 65.9531C976.333 65.4896 976.409 65.0443 976.555 64.6172C976.706 64.1901 976.922 63.8099 977.203 63.4766C977.49 63.1432 977.841 62.8802 978.258 62.6875C978.674 62.4896 979.151 62.3906 979.688 62.3906C980.141 62.3906 980.542 62.4505 980.891 62.5703C981.245 62.6901 981.542 62.875 981.781 63.125C982.026 63.3698 982.211 63.6849 982.336 64.0703C982.461 64.4557 982.523 64.9141 982.523 65.4453V71H981.07V65.4297C981.07 64.9557 980.995 64.5885 980.844 64.3281C980.698 64.0625 980.49 63.8776 980.219 63.7734C979.953 63.6641 979.635 63.6094 979.266 63.6094C978.948 63.6094 978.667 63.6641 978.422 63.7734C978.177 63.8828 977.971 64.0339 977.805 64.2266C977.638 64.4141 977.51 64.6302 977.422 64.875C977.339 65.1198 977.297 65.3802 977.297 65.6562ZM986.281 62.5469V71H984.828V62.5469H986.281ZM984.719 60.3047C984.719 60.0703 984.789 59.8724 984.93 59.7109C985.076 59.5495 985.289 59.4688 985.57 59.4688C985.846 59.4688 986.057 59.5495 986.203 59.7109C986.354 59.8724 986.43 60.0703 986.43 60.3047C986.43 60.5286 986.354 60.7214 986.203 60.8828C986.057 61.0391 985.846 61.1172 985.57 61.1172C985.289 61.1172 985.076 61.0391 984.93 60.8828C984.789 60.7214 984.719 60.5286 984.719 60.3047ZM992.141 62.5469V63.6562H987.57V62.5469H992.141ZM989.117 60.4922H990.562V68.9062C990.562 69.1927 990.607 69.4089 990.695 69.5547C990.784 69.7005 990.898 69.7969 991.039 69.8438C991.18 69.8906 991.331 69.9141 991.492 69.9141C991.612 69.9141 991.737 69.9036 991.867 69.8828C992.003 69.8568 992.104 69.8359 992.172 69.8203L992.18 71C992.065 71.0365 991.914 71.0703 991.727 71.1016C991.544 71.138 991.323 71.1562 991.062 71.1562C990.708 71.1562 990.383 71.0859 990.086 70.9453C989.789 70.8047 989.552 70.5703 989.375 70.2422C989.203 69.9089 989.117 69.4609 989.117 68.8984V60.4922Z" fill="#444444"/>
</svg>
