<svg width="20" height="20" viewBox="0 0 20 20" fill="none" xmlns="http://www.w3.org/2000/svg">
<path fill-rule="evenodd" clip-rule="evenodd" d="M14.8571 7.42857C14.8571 3.32588 11.5313 0 7.42857 0C3.32588 0 0 3.32588 0 7.42857C0 11.5313 3.32588 14.8571 7.42857 14.8571C9.26857 14.8571 10.96 14.1829 12.2629 13.0743L12.5714 13.3829V14.2857L18.2857 20L20 18.2857L14.2857 12.5714H13.3829L13.0743 12.2629C14.1829 10.96 14.8571 9.26857 14.8571 7.42857ZM2.28516 7.42862C2.28516 4.57148 4.57087 2.28577 7.42801 2.28577C10.2852 2.28577 12.5709 4.57148 12.5709 7.42862C12.5709 10.2858 10.2852 12.5715 7.42801 12.5715C4.57087 12.5715 2.28516 10.2858 2.28516 7.42862Z" fill="black"/>
</svg>
