<svg width="16" height="16" viewBox="0 0 16 16" fill="none" xmlns="http://www.w3.org/2000/svg">
<path fill-rule="evenodd" clip-rule="evenodd" d="M8 8.66666C5.42267 8.66666 3.33333 10.756 3.33333 13.3333V14.6667C3.33333 15.0349 3.03486 15.3333 2.66667 15.3333C2.29848 15.3333 2 15.0349 2 14.6667V13.3333C2 10.0196 4.68629 7.33333 8 7.33333C11.3137 7.33333 14 10.0196 14 13.3333V14.6667C14 15.0349 13.7015 15.3333 13.3333 15.3333C12.9651 15.3333 12.6667 15.0349 12.6667 14.6667V13.3333C12.6667 10.756 10.5773 8.66666 8 8.66666Z" fill="#23262F"/>
<path fill-rule="evenodd" clip-rule="evenodd" d="M8 7.33334C9.47276 7.33334 10.6667 6.13943 10.6667 4.66667C10.6667 3.19391 9.47276 2.00001 8 2.00001C6.52724 2.00001 5.33333 3.19391 5.33333 4.66667C5.33333 6.13943 6.52724 7.33334 8 7.33334ZM8 8.66667C10.2091 8.66667 12 6.87581 12 4.66667C12 2.45753 10.2091 0.666672 8 0.666672C5.79086 0.666672 4 2.45753 4 4.66667C4 6.87581 5.79086 8.66667 8 8.66667Z" fill="#23262F"/>
</svg>
