<svg width="25" height="27" viewBox="0 0 25 27" fill="none" xmlns="http://www.w3.org/2000/svg">
<path fill-rule="evenodd" clip-rule="evenodd" d="M7.63531 0.652832L17.365 0.652832C21.3952 0.652832 24.6623 4.10397 24.6623 8.36117L24.6623 18.6389C24.6623 22.8961 21.3952 26.3473 17.365 26.3473L7.63531 26.3473C3.60512 26.3473 0.338013 22.8961 0.338013 18.6389L0.338013 8.36117C0.338013 4.10397 3.60512 0.652832 7.63531 0.652832ZM19.7975 4.507C20.4056 4.507 21.0137 5.14936 21.0137 5.79172C21.0137 6.43408 20.4056 7.07644 19.7975 7.07644C19.1894 7.07644 18.5813 6.43408 18.5813 5.79172C18.5813 5.14936 19.1894 4.507 19.7975 4.507ZM18.5813 13.5001C18.5813 9.95743 15.8539 7.07644 12.5002 7.07644C9.14646 7.07644 6.41909 9.95743 6.41909 13.5001C6.41909 17.0427 9.14646 19.9237 12.5002 19.9237C15.8539 19.9237 18.5813 17.0427 18.5813 13.5001ZM12.5002 9.64589C10.4851 9.64589 8.85153 11.3715 8.85153 13.5001C8.85153 15.6287 10.4851 17.3542 12.5002 17.3542C14.5153 17.3542 16.1488 15.6287 16.1488 13.5001C16.1488 11.3715 14.5153 9.64589 12.5002 9.64589Z" fill="#304659"/>
</svg>
