<svg width="25" height="27" viewBox="0 0 25 27" fill="none" xmlns="http://www.w3.org/2000/svg">
<path fill-rule="evenodd" clip-rule="evenodd" d="M22.2299 0.652832L2.77045 0.652832C1.42705 0.652832 0.338013 1.80321 0.338013 3.22228L0.338013 23.7778C0.338013 25.1969 1.42705 26.3473 2.77045 26.3473L22.2299 26.3473C23.5733 26.3473 24.6623 25.1969 24.6623 23.7778L24.6623 3.22228C24.6623 1.80321 23.5733 0.652832 22.2299 0.652832ZM5.20288 6.51636C5.20288 7.62565 6.05461 8.52688 7.10793 8.52688C8.15792 8.52688 9.01187 7.62565 9.01187 6.51636C9.01187 5.40823 8.15792 4.507 7.10793 4.507C6.05572 4.507 5.20288 5.40706 5.20288 6.51636ZM5.50746 21.2084L8.77485 21.2084L8.77485 10.1131L5.50746 10.1131L5.50746 21.2084ZM21.0137 21.2084L17.7485 21.2084L17.7485 15.8127C17.7485 14.5257 17.7264 12.8706 16.0506 12.8706C14.3504 12.8706 14.0891 14.2721 14.0891 15.7192L14.0891 21.2084L10.8239 21.2084L10.8239 10.1131L13.9584 10.1131L13.9584 11.6292L14.0027 11.6292C14.4391 10.7572 15.5045 9.83723 17.0939 9.83723C20.4023 9.83723 21.0137 12.1353 21.0137 15.123L21.0137 21.2084Z" fill="#304659"/>
</svg>
