<svg width="1040" height="793" viewBox="0 0 1040 793" fill="none" xmlns="http://www.w3.org/2000/svg">
<path d="M0 276.281V68.0834L112.498 0H315.784V116.433H120.393V227.931H315.784V343.377H112.498L0 276.281Z" fill="white"/>
<path d="M0 387.779H124.34V455.863H315.784V567.362H115.459L0 500.265V387.779Z" fill="white"/>
<path d="M555.583 183.529H679.923V68.0834L563.477 0H360.191V116.433H555.583V183.529Z" fill="white"/>
<path d="M1040 725.903V521.653L923.555 453.57H720.269V569.015H915.66V681.501H724.216V793H923.555L1040 725.903Z" fill="white"/>
<path d="M360.077 613.418H484.417V681.501H675.861V793H475.536L360.077 725.903V613.418Z" fill="white"/>
<path d="M915.66 409.167H1040V293.722L923.555 225.638H720.269V342.071H915.66V409.167Z" fill="white"/>
<path fill-rule="evenodd" clip-rule="evenodd" d="M679.426 225.638H358.574V570.88H679.426V225.638ZM385.731 257.8H652.269V327.653H385.731V257.8ZM385.731 363.333H652.269V433.185H385.731V363.333ZM652.269 468.865H385.731V538.717H652.269V468.865Z" fill="white"/>
</svg>
