<svg width="178" height="66" viewBox="0 0 178 66" fill="none" xmlns="http://www.w3.org/2000/svg">
<rect width="178" height="66" rx="33" fill="#FCFCFD"/>
<path d="M56 25.42V12.2928L63.1393 8H76.0401V15.3413H63.6403V22.3715H76.0401V29.6505H63.1393L56 25.42Z" fill="#353945"/>
<path d="M56 32.4502H63.8908V36.7429H76.0401V43.7731H63.3272L56 39.5426V32.4502Z" fill="#353945"/>
<path d="M91.2581 19.5718H99.1489V12.2928L91.7591 8H78.8583V15.3413H91.2581V19.5718Z" fill="#353945"/>
<path d="M122 53.7694V40.8911L114.61 36.5983H101.709V43.8774H114.109V50.9698H101.96V58H114.61L122 53.7694Z" fill="#353945"/>
<path d="M78.8511 46.677H86.7419V50.9698H98.8912V58H86.1782L78.8511 53.7694V46.677Z" fill="#353945"/>
<path d="M114.109 33.7987H122V26.5196L114.61 22.2269H101.709V29.5681H114.109V33.7987Z" fill="#353945"/>
<path fill-rule="evenodd" clip-rule="evenodd" d="M99.1809 22.2269H78.8191V43.9949H99.1809V22.2269ZM80.5426 24.2548H97.4574V28.6591H80.5426V24.2548ZM80.5426 30.9087H97.4574V35.3131H80.5426V30.9087ZM97.4574 37.5627H80.5426V41.967H97.4574V37.5627Z" fill="#353945"/>
</svg>
