<svg width="21" height="21" viewBox="0 0 21 21" fill="none" xmlns="http://www.w3.org/2000/svg">
<path fill-rule="evenodd" clip-rule="evenodd" d="M15.1716 7.87344C15.1716 3.77075 11.8457 0.44487 7.74302 0.44487C3.64034 0.44487 0.314453 3.77075 0.314453 7.87344C0.314453 11.9761 3.64034 15.302 7.74302 15.302C9.58302 15.302 11.2745 14.6277 12.5773 13.5192L12.8859 13.8277V14.7306L18.6002 20.4449L20.3145 18.7306L14.6002 13.0163H13.6973L13.3887 12.7077C14.4973 11.4049 15.1716 9.71344 15.1716 7.87344ZM2.60017 7.87344C2.60017 5.0163 4.88588 2.73058 7.74302 2.73058C10.6002 2.73058 12.8859 5.0163 12.8859 7.87344C12.8859 10.7306 10.6002 13.0163 7.74302 13.0163C4.88588 13.0163 2.60017 10.7306 2.60017 7.87344Z" fill="black"/>
</svg>
