<svg width="20" height="20" viewBox="0 0 20 20" fill="none" xmlns="http://www.w3.org/2000/svg">
<path fill-rule="evenodd" clip-rule="evenodd" d="M9.19107 12.5016C9.65098 12.4842 10.0379 12.843 10.0552 13.3029C10.0944 14.3397 10.1494 15.0964 10.2034 15.639C10.2566 16.1733 10.5792 16.4948 11.0289 16.5498C11.5591 16.6146 12.307 16.6676 13.3334 16.6676C14.3598 16.6676 15.1078 16.6146 15.638 16.5498C16.0874 16.4948 16.4101 16.1732 16.4634 15.6387C16.5637 14.6316 16.6667 12.8917 16.6667 10.001C16.6667 7.1103 16.5637 5.37032 16.4634 4.36321C16.4101 3.82875 16.0874 3.50711 15.638 3.45217C15.1078 3.38736 14.3598 3.33431 13.3334 3.33431C12.307 3.33431 11.5591 3.38735 11.0289 3.45217C10.5792 3.50713 10.2566 3.82863 10.2034 4.36295C10.1494 4.90552 10.0944 5.66226 10.0552 6.69908C10.0379 7.15899 9.65098 7.51774 9.19107 7.50038C8.73116 7.48302 8.3724 7.09612 8.38976 6.63621C8.42994 5.57201 8.4869 4.7805 8.54495 4.19774C8.667 2.9726 9.52117 1.9574 10.8266 1.79782C11.4343 1.72353 12.2507 1.66764 13.3334 1.66764C14.4161 1.66764 15.2325 1.72354 15.8402 1.79782C17.1458 1.95742 17.9998 2.9731 18.1218 4.198C18.2293 5.27654 18.3334 7.0747 18.3334 10.001C18.3334 12.9272 18.2293 14.7254 18.1218 15.804C17.9998 17.0289 17.1458 18.0445 15.8402 18.2041C15.2325 18.2784 14.4161 18.3343 13.3334 18.3343C12.2507 18.3343 11.4343 18.2784 10.8266 18.2041C9.52117 18.0446 8.667 17.0294 8.54495 15.8042C8.4869 15.2215 8.42994 14.4299 8.38976 13.3657C8.3724 12.9058 8.73116 12.5189 9.19107 12.5016Z" fill="#777E91"/>
<path fill-rule="evenodd" clip-rule="evenodd" d="M6.00576 12.3284C6.3312 12.6538 6.3312 13.1815 6.00576 13.5069C5.68032 13.8323 5.15269 13.8323 4.82725 13.5069L1.91058 10.5902C1.58514 10.2648 1.58514 9.73716 1.91058 9.41172L4.82725 6.49505C5.15269 6.16962 5.68032 6.16962 6.00576 6.49505C6.3312 6.82049 6.3312 7.34813 6.00576 7.67357L4.51168 9.16764H12.4998C12.9601 9.16764 13.3332 9.54074 13.3332 10.001C13.3332 10.4612 12.9601 10.8343 12.4998 10.8343L4.51168 10.8343L6.00576 12.3284Z" fill="#777E91"/>
</svg>
