<svg width="25" height="27" viewBox="0 0 25 27" fill="none" xmlns="http://www.w3.org/2000/svg">
<path fill-rule="evenodd" clip-rule="evenodd" d="M22.2299 0.652832L2.77045 0.652832C1.42705 0.652832 0.338013 1.80321 0.338013 3.22228L0.338013 23.7778C0.338013 25.1969 1.42705 26.3473 2.77045 26.3473L22.2299 26.3473C23.5733 26.3473 24.6623 25.1969 24.6623 23.7778L24.6623 3.22228C24.6623 1.80321 23.5733 0.652832 22.2299 0.652832ZM19.0072 8.66868C19.7138 8.5824 20.387 8.39111 21.0137 8.10685C20.5455 8.82185 19.9528 9.44989 19.2698 9.95353C19.2763 10.1067 19.2796 10.2605 19.2796 10.415C19.2796 15.1297 15.7669 20.566 9.34146 20.566C7.36836 20.566 5.53279 19.9754 3.98666 18.9635C4.26039 18.9969 4.53871 19.0136 4.8203 19.0136C6.45745 19.0136 7.96363 18.4431 9.15875 17.486C7.63031 17.4573 6.34023 16.4252 5.89558 15.008C6.10841 15.0488 6.32779 15.0715 6.55241 15.0715C6.87132 15.0715 7.18042 15.028 7.47314 14.9464C5.87462 14.6194 4.67099 13.1773 4.67099 11.4484L4.67099 11.4036C5.14184 11.6704 5.68079 11.831 6.25313 11.8497C5.31603 11.2103 4.6998 10.1181 4.6998 8.8807C4.6998 8.22591 4.87203 7.61325 5.17196 7.0862C6.89555 9.24522 9.46915 10.6658 12.3722 10.8143C12.3132 10.5541 12.2818 10.2813 12.2818 10.0017C12.2818 8.03194 13.8456 6.43408 15.7748 6.43408C16.7794 6.43408 17.687 6.86749 18.3242 7.56108C19.1205 7.40056 19.8683 7.10359 20.5428 6.69493C20.2822 7.52831 19.7289 8.22725 19.0072 8.66868Z" fill="#304659"/>
</svg>
